# xmcd
# Copyright (C) 1995-1998 Ti Kan
#
# Track frame offsets:
#       150
#       29123
#       50566
#       73571
#       77532
#       96128
#       120644
#       135199
#       155886
#       176603
#       187439
#       203338
#
# Disc length: 2935 seconds
#
# Revision: 0
# Processed by: cddbd v1.5.2PL0 Copyright (c) Steve Scherf et al.
# Submitted via: CD-Import v1.0
#
DISCID=a60b750c
DTITLE=The Soundtrack Of Our Lives - Communion Disc1
DYEAR=2009
DGENRE=
TTITLE0=Babel On
TTITLE1=Universal Stalker
TTITLE2=The Ego Delusion
TTITLE3=Pineal Gland Hotel
TTITLE4=Ra
TTITLE5=Second Life Replay
TTITLE6=Thrill Me
TTITLE7=Fly
TTITLE8=Pictures Of Youth
TTITLE9=Mensa's Marauders
TTITLE10=Just A Brother
TTITLE11=Distorted Child
EXTD=
EXTT0=
EXTT1=
EXTT2=
EXTT3=
EXTT4=
EXTT5=
EXTT6=
EXTT7=
EXTT8=
EXTT9=
EXTT10=
EXTT11=
PLAYORDER=
